<mxfile host="app.diagrams.net" modified="2023-07-17T01:12:09.223Z" agent="Mozilla/5.0 (Macintosh; Intel Mac OS X 10_15_7) AppleWebKit/537.36 (KHTML, like Gecko) Chrome/114.0.0.0 Safari/537.36" etag="POwzDq-7QCqNnZXFtbhg" version="21.6.2" type="google">
  <diagram name="Страница 1" id="fDb4crAP9MWU0fk3nAfw">
    <mxGraphModel grid="1" page="1" gridSize="10" guides="1" tooltips="1" connect="1" arrows="1" fold="1" pageScale="1" pageWidth="827" pageHeight="1169" math="0" shadow="0">
      <root>
        <mxCell id="0" />
        <mxCell id="1" parent="0" />
        <mxCell id="Fq-bNqy3KMqKXe6c286o-51" value="" style="rounded=1;whiteSpace=wrap;html=1;dashed=1;fillColor=none;movable=0;resizable=0;rotatable=0;deletable=0;editable=0;locked=1;connectable=0;" vertex="1" parent="1">
          <mxGeometry x="-670" y="-782" width="710" height="400" as="geometry" />
        </mxCell>
        <mxCell id="Fq-bNqy3KMqKXe6c286o-42" value="" style="html=1;whiteSpace=wrap;aspect=fixed;shape=isoRectangle;fillColor=#FFFFFF;strokeColor=#b85450;" vertex="1" parent="1">
          <mxGeometry x="-238" y="-476" width="100" height="60" as="geometry" />
        </mxCell>
        <mxCell id="Fq-bNqy3KMqKXe6c286o-41" value="" style="html=1;whiteSpace=wrap;aspect=fixed;shape=isoRectangle;fillColor=#FFFFFF;strokeColor=#b85450;" vertex="1" parent="1">
          <mxGeometry x="-238" y="-489" width="100" height="60" as="geometry" />
        </mxCell>
        <mxCell id="Fq-bNqy3KMqKXe6c286o-45" style="edgeStyle=orthogonalEdgeStyle;rounded=0;orthogonalLoop=1;jettySize=auto;html=1;exitX=1;exitY=0.5;exitDx=0;exitDy=0;entryX=0;entryY=0.5;entryDx=0;entryDy=0;entryPerimeter=0;" edge="1" parent="1" source="Fq-bNqy3KMqKXe6c286o-21" target="Fq-bNqy3KMqKXe6c286o-39">
          <mxGeometry relative="1" as="geometry" />
        </mxCell>
        <mxCell id="Fq-bNqy3KMqKXe6c286o-21" value="" style="rounded=1;whiteSpace=wrap;html=1;dashed=1;fillColor=#FFFFFF;strokeColor=#6c8ebf;" vertex="1" parent="1">
          <mxGeometry x="-436" y="-634" width="276" height="100" as="geometry" />
        </mxCell>
        <mxCell id="Fq-bNqy3KMqKXe6c286o-28" value="" style="rounded=1;whiteSpace=wrap;html=1;fillColor=#FFFFFF;strokeColor=#82b366;dashed=1;dashPattern=8 8;" vertex="1" parent="1">
          <mxGeometry x="-394" y="-586" width="217" height="44" as="geometry" />
        </mxCell>
        <mxCell id="Fq-bNqy3KMqKXe6c286o-46" style="edgeStyle=orthogonalEdgeStyle;rounded=0;orthogonalLoop=1;jettySize=auto;html=1;exitX=1;exitY=0.5;exitDx=0;exitDy=0;" edge="1" parent="1" source="Fq-bNqy3KMqKXe6c286o-20" target="Fq-bNqy3KMqKXe6c286o-38">
          <mxGeometry relative="1" as="geometry" />
        </mxCell>
        <mxCell id="Fq-bNqy3KMqKXe6c286o-20" value="" style="rounded=1;whiteSpace=wrap;html=1;dashed=1;fillColor=#FFFFFF;strokeColor=#6c8ebf;" vertex="1" parent="1">
          <mxGeometry x="-436" y="-760" width="220" height="100" as="geometry" />
        </mxCell>
        <mxCell id="Fq-bNqy3KMqKXe6c286o-48" style="edgeStyle=orthogonalEdgeStyle;rounded=0;orthogonalLoop=1;jettySize=auto;html=1;exitX=1;exitY=0.5;exitDx=0;exitDy=0;entryX=0;entryY=0.5;entryDx=0;entryDy=0;" edge="1" parent="1" source="Fq-bNqy3KMqKXe6c286o-1" target="Fq-bNqy3KMqKXe6c286o-15">
          <mxGeometry relative="1" as="geometry" />
        </mxCell>
        <mxCell id="Fq-bNqy3KMqKXe6c286o-49" style="edgeStyle=orthogonalEdgeStyle;rounded=0;orthogonalLoop=1;jettySize=auto;html=1;entryX=0;entryY=0.5;entryDx=0;entryDy=0;" edge="1" parent="1" source="Fq-bNqy3KMqKXe6c286o-1" target="Fq-bNqy3KMqKXe6c286o-23">
          <mxGeometry relative="1" as="geometry" />
        </mxCell>
        <mxCell id="Fq-bNqy3KMqKXe6c286o-50" style="edgeStyle=orthogonalEdgeStyle;rounded=0;orthogonalLoop=1;jettySize=auto;html=1;entryX=0;entryY=0.5;entryDx=0;entryDy=0;" edge="1" parent="1" source="Fq-bNqy3KMqKXe6c286o-1" target="Fq-bNqy3KMqKXe6c286o-33">
          <mxGeometry relative="1" as="geometry" />
        </mxCell>
        <mxCell id="Fq-bNqy3KMqKXe6c286o-1" value="&lt;font color=&quot;#00cc00&quot;&gt;API&lt;/font&gt;&lt;br&gt;GATEWAY" style="ellipse;whiteSpace=wrap;html=1;aspect=fixed;fillColor=#dae8fc;strokeColor=#6c8ebf;" vertex="1" parent="1">
          <mxGeometry x="-802" y="-645" width="120" height="120" as="geometry" />
        </mxCell>
        <mxCell id="Fq-bNqy3KMqKXe6c286o-4" style="edgeStyle=orthogonalEdgeStyle;rounded=0;orthogonalLoop=1;jettySize=auto;html=1;" edge="1" parent="1" source="Fq-bNqy3KMqKXe6c286o-2" target="Fq-bNqy3KMqKXe6c286o-3">
          <mxGeometry relative="1" as="geometry" />
        </mxCell>
        <mxCell id="Fq-bNqy3KMqKXe6c286o-2" value="HTTP — запрос" style="text;strokeColor=none;align=center;fillColor=none;html=1;verticalAlign=middle;whiteSpace=wrap;rounded=0;" vertex="1" parent="1">
          <mxGeometry x="-990" y="-596" width="100" height="30" as="geometry" />
        </mxCell>
        <mxCell id="Fq-bNqy3KMqKXe6c286o-3" value="REST&lt;br&gt;&lt;font style=&quot;font-size: 10px;&quot; color=&quot;#00cc00&quot;&gt;API&lt;/font&gt;" style="rounded=1;whiteSpace=wrap;html=1;fillColor=#fff2cc;strokeColor=#d6b656;" vertex="1" parent="1">
          <mxGeometry x="-847" y="-611" width="60" height="60" as="geometry" />
        </mxCell>
        <mxCell id="Fq-bNqy3KMqKXe6c286o-14" value="&lt;span style=&quot;border-color: var(--border-color); font-family: Helvetica; font-style: normal; font-variant-ligatures: normal; font-variant-caps: normal; font-weight: 400; letter-spacing: normal; orphans: 2; text-align: center; text-indent: 0px; text-transform: none; widows: 2; word-spacing: 0px; -webkit-text-stroke-width: 0px; background-color: rgb(251, 251, 251);&quot;&gt;&lt;font style=&quot;&quot;&gt;Users&lt;font color=&quot;#00cc00&quot; style=&quot;font-size: 10px;&quot;&gt;&lt;br&gt;Microservice&lt;/font&gt;&amp;nbsp;&lt;/font&gt;&lt;/span&gt;" style="shape=hexagon;perimeter=hexagonPerimeter2;whiteSpace=wrap;html=1;fixedSize=1;strokeColor=#688ec0;" vertex="1" parent="1">
          <mxGeometry x="-560" y="-760" width="160" height="100" as="geometry" />
        </mxCell>
        <mxCell id="Fq-bNqy3KMqKXe6c286o-15" value="REST&lt;br&gt;&lt;font style=&quot;font-size: 10px;&quot; color=&quot;#00cc00&quot;&gt;API&lt;/font&gt;" style="rounded=1;whiteSpace=wrap;html=1;fillColor=#fff2cc;strokeColor=#d6b656;" vertex="1" parent="1">
          <mxGeometry x="-590" y="-740" width="60" height="60" as="geometry" />
        </mxCell>
        <mxCell id="Fq-bNqy3KMqKXe6c286o-16" value="User" style="rounded=1;whiteSpace=wrap;html=1;" vertex="1" parent="1">
          <mxGeometry x="-390" y="-745" width="60" height="30" as="geometry" />
        </mxCell>
        <mxCell id="Fq-bNqy3KMqKXe6c286o-17" value="Feed" style="rounded=1;whiteSpace=wrap;html=1;" vertex="1" parent="1">
          <mxGeometry x="-390" y="-705" width="60" height="30" as="geometry" />
        </mxCell>
        <mxCell id="Fq-bNqy3KMqKXe6c286o-18" value="Authentication" style="rounded=1;whiteSpace=wrap;html=1;" vertex="1" parent="1">
          <mxGeometry x="-322" y="-745" width="90" height="30" as="geometry" />
        </mxCell>
        <mxCell id="Fq-bNqy3KMqKXe6c286o-19" value="Refresh Token" style="rounded=1;whiteSpace=wrap;html=1;" vertex="1" parent="1">
          <mxGeometry x="-322" y="-705" width="90" height="30" as="geometry" />
        </mxCell>
        <mxCell id="Fq-bNqy3KMqKXe6c286o-22" value="&lt;span style=&quot;border-color: var(--border-color); font-family: Helvetica; font-style: normal; font-variant-ligatures: normal; font-variant-caps: normal; font-weight: 400; letter-spacing: normal; orphans: 2; text-align: center; text-indent: 0px; text-transform: none; widows: 2; word-spacing: 0px; -webkit-text-stroke-width: 0px; background-color: rgb(251, 251, 251);&quot;&gt;&lt;font style=&quot;&quot;&gt;Blogs&lt;font color=&quot;#00cc00&quot; style=&quot;font-size: 10px;&quot;&gt;&lt;br&gt;Microservice&lt;/font&gt;&amp;nbsp;&lt;/font&gt;&lt;/span&gt;" style="shape=hexagon;perimeter=hexagonPerimeter2;whiteSpace=wrap;html=1;fixedSize=1;strokeColor=#688ec0;" vertex="1" parent="1">
          <mxGeometry x="-560" y="-634" width="160" height="100" as="geometry" />
        </mxCell>
        <mxCell id="Fq-bNqy3KMqKXe6c286o-23" value="REST&lt;br&gt;&lt;font style=&quot;font-size: 10px;&quot; color=&quot;#00cc00&quot;&gt;API&lt;/font&gt;" style="rounded=1;whiteSpace=wrap;html=1;fillColor=#fff2cc;strokeColor=#d6b656;" vertex="1" parent="1">
          <mxGeometry x="-590" y="-614" width="60" height="60" as="geometry" />
        </mxCell>
        <mxCell id="Fq-bNqy3KMqKXe6c286o-24" value="BlogPosts" style="rounded=1;whiteSpace=wrap;html=1;" vertex="1" parent="1">
          <mxGeometry x="-387" y="-624" width="70" height="30" as="geometry" />
        </mxCell>
        <mxCell id="Fq-bNqy3KMqKXe6c286o-25" value="BlogComments" style="rounded=1;whiteSpace=wrap;html=1;" vertex="1" parent="1">
          <mxGeometry x="-387" y="-579" width="110" height="30" as="geometry" />
        </mxCell>
        <mxCell id="Fq-bNqy3KMqKXe6c286o-27" value="BlogLikes" style="rounded=1;whiteSpace=wrap;html=1;" vertex="1" parent="1">
          <mxGeometry x="-268" y="-579" width="81" height="30" as="geometry" />
        </mxCell>
        <mxCell id="Fq-bNqy3KMqKXe6c286o-29" value="Interaction Menegere" style="text;strokeColor=none;align=center;fillColor=none;html=1;verticalAlign=middle;whiteSpace=wrap;rounded=0;fontColor=#81b168;" vertex="1" parent="1">
          <mxGeometry x="-307" y="-613" width="130" height="30" as="geometry" />
        </mxCell>
        <mxCell id="Fq-bNqy3KMqKXe6c286o-47" style="edgeStyle=orthogonalEdgeStyle;rounded=0;orthogonalLoop=1;jettySize=auto;html=1;exitX=1;exitY=0.5;exitDx=0;exitDy=0;entryX=0.039;entryY=0.498;entryDx=0;entryDy=0;entryPerimeter=0;" edge="1" parent="1" source="Fq-bNqy3KMqKXe6c286o-30" target="Fq-bNqy3KMqKXe6c286o-41">
          <mxGeometry relative="1" as="geometry" />
        </mxCell>
        <mxCell id="Fq-bNqy3KMqKXe6c286o-30" value="" style="rounded=1;whiteSpace=wrap;html=1;dashed=1;fillColor=#FFFFFF;strokeColor=#6c8ebf;" vertex="1" parent="1">
          <mxGeometry x="-436" y="-510" width="146" height="100" as="geometry" />
        </mxCell>
        <mxCell id="Fq-bNqy3KMqKXe6c286o-32" value="&lt;span style=&quot;border-color: var(--border-color); font-family: Helvetica; font-style: normal; font-variant-ligatures: normal; font-variant-caps: normal; font-weight: 400; letter-spacing: normal; orphans: 2; text-indent: 0px; text-transform: none; widows: 2; word-spacing: 0px; -webkit-text-stroke-width: 0px; background-color: rgb(251, 251, 251);&quot;&gt;&lt;font style=&quot;&quot;&gt;Notification&lt;font color=&quot;#00cc00&quot; style=&quot;font-size: 10px;&quot;&gt;&lt;br&gt;Microservice&lt;/font&gt;&amp;nbsp;&lt;/font&gt;&lt;/span&gt;" style="shape=hexagon;perimeter=hexagonPerimeter2;whiteSpace=wrap;html=1;fixedSize=1;strokeColor=#688ec0;align=center;" vertex="1" parent="1">
          <mxGeometry x="-560" y="-510" width="160" height="100" as="geometry" />
        </mxCell>
        <mxCell id="Fq-bNqy3KMqKXe6c286o-33" value="REST&lt;br&gt;&lt;font style=&quot;font-size: 10px;&quot; color=&quot;#00cc00&quot;&gt;API&lt;/font&gt;" style="rounded=1;whiteSpace=wrap;html=1;fillColor=#fff2cc;strokeColor=#d6b656;" vertex="1" parent="1">
          <mxGeometry x="-590" y="-490" width="60" height="60" as="geometry" />
        </mxCell>
        <mxCell id="Fq-bNqy3KMqKXe6c286o-34" value="Subscribe" style="rounded=1;whiteSpace=wrap;html=1;" vertex="1" parent="1">
          <mxGeometry x="-387" y="-500" width="70" height="30" as="geometry" />
        </mxCell>
        <mxCell id="Fq-bNqy3KMqKXe6c286o-35" value="Mail" style="rounded=1;whiteSpace=wrap;html=1;" vertex="1" parent="1">
          <mxGeometry x="-387" y="-455" width="57" height="30" as="geometry" />
        </mxCell>
        <mxCell id="Fq-bNqy3KMqKXe6c286o-52" style="edgeStyle=orthogonalEdgeStyle;rounded=0;orthogonalLoop=1;jettySize=auto;html=1;exitX=1;exitY=0.5;exitDx=0;exitDy=0;exitPerimeter=0;entryX=0.994;entryY=0.543;entryDx=0;entryDy=0;entryPerimeter=0;dashed=1;" edge="1" parent="1" source="Fq-bNqy3KMqKXe6c286o-38" target="Fq-bNqy3KMqKXe6c286o-41">
          <mxGeometry relative="1" as="geometry">
            <Array as="points">
              <mxPoint y="-710" />
              <mxPoint y="-456" />
            </Array>
          </mxGeometry>
        </mxCell>
        <mxCell id="Fq-bNqy3KMqKXe6c286o-38" value="MongoDB" style="shape=cylinder3;whiteSpace=wrap;html=1;boundedLbl=1;backgroundOutline=1;size=15;" vertex="1" parent="1">
          <mxGeometry x="-170" y="-750" width="90" height="80" as="geometry" />
        </mxCell>
        <mxCell id="Fq-bNqy3KMqKXe6c286o-53" style="edgeStyle=orthogonalEdgeStyle;rounded=0;orthogonalLoop=1;jettySize=auto;html=1;entryX=0.994;entryY=0.54;entryDx=0;entryDy=0;entryPerimeter=0;dashed=1;" edge="1" parent="1" source="Fq-bNqy3KMqKXe6c286o-39" target="Fq-bNqy3KMqKXe6c286o-41">
          <mxGeometry relative="1" as="geometry">
            <mxPoint x="-90" y="-399.9999999999998" as="targetPoint" />
            <Array as="points">
              <mxPoint x="-10" y="-583" />
              <mxPoint x="-10" y="-457" />
            </Array>
          </mxGeometry>
        </mxCell>
        <mxCell id="Fq-bNqy3KMqKXe6c286o-39" value="PostgreSQL" style="shape=cylinder3;whiteSpace=wrap;html=1;boundedLbl=1;backgroundOutline=1;size=15;" vertex="1" parent="1">
          <mxGeometry x="-120" y="-623" width="90" height="80" as="geometry" />
        </mxCell>
        <mxCell id="Fq-bNqy3KMqKXe6c286o-40" value="&lt;meta charset=&quot;utf-8&quot;&gt;&lt;span style=&quot;color: rgb(0, 0, 0); font-family: Helvetica; font-size: 12px; font-style: normal; font-variant-ligatures: normal; font-variant-caps: normal; font-weight: 400; letter-spacing: normal; orphans: 2; text-align: center; text-indent: 0px; text-transform: none; widows: 2; word-spacing: 0px; -webkit-text-stroke-width: 0px; background-color: rgb(251, 251, 251); text-decoration-thickness: initial; text-decoration-style: initial; text-decoration-color: initial; float: none; display: inline !important;&quot;&gt;RabbitMQ&lt;/span&gt;" style="html=1;whiteSpace=wrap;aspect=fixed;shape=isoRectangle;fillColor=#FFFFFF;strokeColor=#b85450;" vertex="1" parent="1">
          <mxGeometry x="-240" y="-504" width="100" height="60" as="geometry" />
        </mxCell>
      </root>
    </mxGraphModel>
  </diagram>
</mxfile>
